<svg xmlns="http://www.w3.org/2000/svg" version="1.1" xmlns:xlink="http://www.w3.org/1999/xlink" xmlns:svgjs="http://svgjs.com/svgjs" width="512" height="512" x="0" y="0" viewBox="0 0 512 512" style="enable-background:new 0 0 512 512" xml:space="preserve" class=""><g><path xmlns="http://www.w3.org/2000/svg" d="m512 368v112a32 32 0 0 1 -32 32h-448a32 32 0 0 1 -32-32v-112a32 32 0 0 1 64 0v80h384v-80a32 32 0 0 1 64 0zm-278.627 22.249a32 32 0 0 0 45.254 0l114.754-114.749a32 32 0 0 0 -45.255-45.255l-60.126 60.122v-258.367a32 32 0 0 0 -64 0v258.367l-60.126-60.127a32 32 0 0 0 -45.255 45.26z" fill="#ffffff" data-original="#000000" class=""></path></g></svg>